<svg width="71" height="78" viewBox="0 0 71 78" fill="none" xmlns="http://www.w3.org/2000/svg">
<path d="M55.0663 10.926C55.0744 10.7972 55.0744 10.6681 55.0663 10.5393C55.017 7.86965 54.0223 5.32754 52.2953 3.4582C50.5683 1.58886 48.2463 0.540743 45.8276 0.539065C43.409 0.537386 41.0857 1.5819 39.3566 3.44885C37.6273 5.31579 36.6294 7.85621 36.5771 10.5259C37.2885 15.5682 39.1568 17.1571 40.6097 20.8879L20.3895 20.4487L19.9957 42.5846C16.1639 40.9359 13.4118 37.9724 10.1612 37.9036C10.0437 37.8952 9.92575 37.8952 9.80824 37.9036C7.39063 37.9571 5.0884 39.0544 3.39499 40.9599C1.70158 42.8655 0.752129 45.4277 0.750004 48.0972C0.747879 50.7664 1.69329 53.3306 3.38352 55.2393C5.07395 57.1482 7.37448 58.25 9.79188 58.3083C14.6297 57.478 15.9576 55.2086 19.7947 53.5793L19.3873 76.1935L39.6959 76.634C38.2403 72.7519 36.3083 71.199 35.5845 66.0637C35.6368 63.3944 36.6342 60.8542 38.3631 58.9875C40.092 57.1206 42.4147 56.0761 44.8331 56.0778C47.2514 56.0792 49.5729 57.1268 51.2999 58.9959C53.0269 60.8648 54.0216 63.4064 54.0709 66.0756C54.0777 66.2049 54.0777 66.3347 54.0709 66.464C54.0097 69.9115 51.525 72.8642 49.9975 76.8573L69.8824 77.2891L70.875 21.5295L51.0634 21.1006C52.606 17.2214 55.0064 14.3195 55.0663 10.926Z" fill="black"/>
</svg>
